<svg width="120" height="24" viewBox="0 0 120 24" fill="none" xmlns="http://www.w3.org/2000/svg">
<g clip-path="url(#clip0_1094_2364)">
<path d="M85.543 6.498C86 8.28 86 12 86 12C86 12 86 15.72 85.543 17.502C85.289 18.487 84.546 19.262 83.605 19.524C81.896 20 76 20 76 20C76 20 70.107 20 68.395 19.524C67.45 19.258 66.708 18.484 66.457 17.502C66 15.72 66 12 66 12C66 12 66 8.28 66.457 6.498C66.711 5.513 67.454 4.738 68.395 4.476C70.107 4 76 4 76 4C76 4 81.896 4 83.605 4.476C84.55 4.742 85.292 5.516 85.543 6.498ZM74 15.5L80 12L74 8.5V15.5Z" fill="#31344B"/>
</g>
<g clip-path="url(#clip1_1094_2364)">
<path d="M108 2C102.475 2 98 6.475 98 12C97.9989 14.0993 98.6588 16.1456 99.8862 17.8487C101.114 19.5517 102.846 20.8251 104.838 21.488C105.338 21.575 105.525 21.275 105.525 21.012C105.525 20.775 105.512 19.988 105.512 19.15C103 19.613 102.35 18.538 102.15 17.975C102.037 17.687 101.55 16.8 101.125 16.562C100.775 16.375 100.275 15.912 101.112 15.9C101.9 15.887 102.462 16.625 102.65 16.925C103.55 18.437 104.988 18.012 105.562 17.75C105.65 17.1 105.912 16.663 106.2 16.413C103.975 16.163 101.65 15.3 101.65 11.475C101.65 10.387 102.037 9.488 102.675 8.787C102.575 8.537 102.225 7.512 102.775 6.137C102.775 6.137 103.612 5.875 105.525 7.163C106.339 6.93706 107.18 6.82334 108.025 6.825C108.875 6.825 109.725 6.937 110.525 7.162C112.437 5.862 113.275 6.138 113.275 6.138C113.825 7.513 113.475 8.538 113.375 8.788C114.012 9.488 114.4 10.375 114.4 11.475C114.4 15.313 112.063 16.163 109.838 16.413C110.2 16.725 110.513 17.325 110.513 18.263C110.513 19.6 110.5 20.675 110.5 21.013C110.5 21.275 110.688 21.587 111.188 21.487C113.173 20.8168 114.898 19.541 116.12 17.8392C117.342 16.1373 117.999 14.0951 118 12C118 6.475 113.525 2 108 2Z" fill="#31344B"/>
</g>
<g clip-path="url(#clip2_1094_2364)">
<path d="M14 13.5H16.5L17.5 9.5H14V7.5C14 6.47 14 5.5 16 5.5H17.5V2.14C17.174 2.097 15.943 2 14.643 2C11.928 2 10 3.657 10 6.7V9.5H7V13.5H10V22H14V13.5Z" fill="#31344B"/>
</g>
<g clip-path="url(#clip3_1094_2364)">
<path d="M44 2C46.717 2 47.056 2.01 48.122 2.06C49.187 2.11 49.912 2.277 50.55 2.525C51.21 2.779 51.766 3.123 52.322 3.678C52.8305 4.1779 53.224 4.78259 53.475 5.45C53.722 6.087 53.89 6.813 53.94 7.878C53.987 8.944 54 9.283 54 12C54 14.717 53.99 15.056 53.94 16.122C53.89 17.187 53.722 17.912 53.475 18.55C53.2247 19.2178 52.8311 19.8226 52.322 20.322C51.822 20.8303 51.2173 21.2238 50.55 21.475C49.913 21.722 49.187 21.89 48.122 21.94C47.056 21.987 46.717 22 44 22C41.283 22 40.944 21.99 39.878 21.94C38.813 21.89 38.088 21.722 37.45 21.475C36.7823 21.2245 36.1775 20.8309 35.678 20.322C35.1694 19.8222 34.7759 19.2175 34.525 18.55C34.277 17.913 34.11 17.187 34.06 16.122C34.013 15.056 34 14.717 34 12C34 9.283 34.01 8.944 34.06 7.878C34.11 6.812 34.277 6.088 34.525 5.45C34.7752 4.78218 35.1688 4.17732 35.678 3.678C36.1777 3.16923 36.7824 2.77573 37.45 2.525C38.088 2.277 38.812 2.11 39.878 2.06C40.944 2.013 41.283 2 44 2ZM44 7C42.6739 7 41.4021 7.52678 40.4645 8.46447C39.5268 9.40215 39 10.6739 39 12C39 13.3261 39.5268 14.5979 40.4645 15.5355C41.4021 16.4732 42.6739 17 44 17C45.3261 17 46.5979 16.4732 47.5355 15.5355C48.4732 14.5979 49 13.3261 49 12C49 10.6739 48.4732 9.40215 47.5355 8.46447C46.5979 7.52678 45.3261 7 44 7ZM50.5 6.75C50.5 6.41848 50.3683 6.10054 50.1339 5.86612C49.8995 5.6317 49.5815 5.5 49.25 5.5C48.9185 5.5 48.6005 5.6317 48.3661 5.86612C48.1317 6.10054 48 6.41848 48 6.75C48 7.08152 48.1317 7.39946 48.3661 7.63388C48.6005 7.8683 48.9185 8 49.25 8C49.5815 8 49.8995 7.8683 50.1339 7.63388C50.3683 7.39946 50.5 7.08152 50.5 6.75ZM44 9C44.7956 9 45.5587 9.31607 46.1213 9.87868C46.6839 10.4413 47 11.2044 47 12C47 12.7956 46.6839 13.5587 46.1213 14.1213C45.5587 14.6839 44.7956 15 44 15C43.2044 15 42.4413 14.6839 41.8787 14.1213C41.3161 13.5587 41 12.7956 41 12C41 11.2044 41.3161 10.4413 41.8787 9.87868C42.4413 9.31607 43.2044 9 44 9Z" fill="#31344B"/>
</g>
<defs>
<clipPath id="clip0_1094_2364">
<rect width="24" height="24" fill="white" transform="translate(64)"/>
</clipPath>
<clipPath id="clip1_1094_2364">
<rect width="24" height="24" fill="white" transform="translate(96)"/>
</clipPath>
<clipPath id="clip2_1094_2364">
<rect width="24" height="24" fill="white"/>
</clipPath>
<clipPath id="clip3_1094_2364">
<rect width="24" height="24" fill="white" transform="translate(32)"/>
</clipPath>
</defs>
</svg>
